<svg width="692" height="612" viewBox="0 0 692 612" fill="none" xmlns="http://www.w3.org/2000/svg">
<path d="M182.024 157.278L185.625 155.386L184.937 159.395L187.852 162.235L183.826 162.82L182.024 166.469L180.224 162.82L176.197 162.235L179.111 159.395L178.423 155.386L182.024 157.278Z" fill="#FACC15"/>
<g clip-path="url(#clip0_865_22215)">
<path d="M187.525 392.576L190.354 391.089L189.813 394.239L192.103 396.47L188.94 396.93L187.525 399.797L186.11 396.93L182.946 396.47L185.236 394.239L184.695 391.089L187.525 392.576Z" fill="#FACC15"/>
</g>
<g clip-path="url(#clip1_865_22215)">
<path d="M158.49 214.564C160.101 214.564 161.407 215.87 161.407 217.481C161.407 219.092 160.101 220.398 158.49 220.398C156.879 220.398 155.574 219.092 155.574 217.481C155.574 215.87 156.879 214.564 158.49 214.564Z" fill="#FACC15"/>
</g>
<g clip-path="url(#clip2_865_22215)">
<path d="M159.973 101.645C161.814 101.645 163.306 103.137 163.306 104.978C163.306 106.819 161.814 108.311 159.973 108.311C158.132 108.311 156.639 106.819 156.639 104.978C156.639 103.137 158.132 101.645 159.973 101.645Z" fill="#FACC15"/>
</g>
<g clip-path="url(#clip3_865_22215)">
<path d="M95.0245 81.8057C97.3257 81.8057 99.1912 83.6711 99.1912 85.9724C99.1912 88.2736 97.3257 90.139 95.0245 90.139C92.7232 90.139 90.8578 88.2736 90.8578 85.9724C90.8578 83.6711 92.7232 81.8057 95.0245 81.8057Z" fill="#FACC15"/>
</g>
<g clip-path="url(#clip4_865_22215)">
<path d="M127.977 175.806C130.278 175.806 132.143 177.671 132.143 179.973C132.143 182.274 130.278 184.139 127.977 184.139C125.675 184.139 123.81 182.274 123.81 179.973C123.81 177.671 125.675 175.806 127.977 175.806Z" fill="#FACC15"/>
</g>
<g clip-path="url(#clip5_865_22215)">
<path d="M177.524 522.886C180.056 522.886 182.108 524.938 182.108 527.47C182.108 530.001 180.056 532.053 177.524 532.053C174.993 532.053 172.941 530.001 172.941 527.47C172.941 524.938 174.993 522.886 177.524 522.886Z" fill="#FACC15"/>
</g>
<g clip-path="url(#clip6_865_22215)">
<path d="M177.024 297.322C177.945 297.322 178.691 298.068 178.691 298.989C178.691 299.909 177.945 300.655 177.024 300.655C176.104 300.655 175.358 299.909 175.358 298.989C175.358 298.068 176.104 297.322 177.024 297.322Z" fill="#FACC15"/>
</g>
<g clip-path="url(#clip7_865_22215)">
<path d="M57.5001 260.564C59.111 260.564 60.4167 261.87 60.4167 263.481C60.4167 265.092 59.111 266.398 57.5001 266.398C55.8892 266.398 54.5834 265.092 54.5834 263.481C54.5834 261.87 55.8892 260.564 57.5001 260.564Z" fill="#FACC15"/>
</g>
<g clip-path="url(#clip8_865_22215)">
<path d="M62.9785 493.484C64.3593 493.484 65.4785 494.603 65.4785 495.984C65.4785 497.364 64.3593 498.484 62.9785 498.484C61.5978 498.484 60.4785 497.364 60.4785 495.984C60.4785 494.603 61.5978 493.484 62.9785 493.484Z" fill="#FACC15"/>
</g>
<path d="M142.649 427.875V431C142.649 431.165 142.715 431.324 142.832 431.441C142.95 431.559 143.109 431.625 143.274 431.625C143.44 431.625 143.599 431.559 143.716 431.441C143.834 431.324 143.899 431.165 143.899 431V427.875H147.024C147.19 427.875 147.349 427.809 147.466 427.691C147.584 427.574 147.649 427.415 147.649 427.25C147.649 427.084 147.584 426.925 147.466 426.808C147.349 426.69 147.19 426.625 147.024 426.625H143.899V423.5C143.899 423.334 143.834 423.175 143.716 423.058C143.599 422.94 143.44 422.875 143.274 422.875C143.109 422.875 142.95 422.94 142.832 423.058C142.715 423.175 142.649 423.334 142.649 423.5V426.625H139.524C139.359 426.625 139.2 426.69 139.082 426.808C138.965 426.925 138.899 427.084 138.899 427.25C138.899 427.415 138.965 427.574 139.082 427.691C139.2 427.809 139.359 427.875 139.524 427.875H142.649Z" fill="#FACC15"/>
<path d="M159.558 356.199V357.866C159.558 357.955 159.593 358.039 159.655 358.102C159.718 358.164 159.803 358.199 159.891 358.199C159.979 358.199 160.064 358.164 160.127 358.102C160.189 358.039 160.224 357.955 160.224 357.866V356.199H161.891C161.979 356.199 162.064 356.164 162.127 356.102C162.189 356.039 162.224 355.955 162.224 355.866C162.224 355.778 162.189 355.693 162.127 355.63C162.064 355.568 161.979 355.533 161.891 355.533H160.224V353.866C160.224 353.778 160.189 353.693 160.127 353.63C160.064 353.568 159.979 353.533 159.891 353.533C159.803 353.533 159.718 353.568 159.655 353.63C159.593 353.693 159.558 353.778 159.558 353.866V355.533H157.891C157.803 355.533 157.718 355.568 157.655 355.63C157.593 355.693 157.558 355.778 157.558 355.866C157.558 355.955 157.593 356.039 157.655 356.102C157.718 356.164 157.803 356.199 157.891 356.199H159.558Z" fill="#FACC15"/>
<g clip-path="url(#clip9_865_22215)">
<path d="M103.024 320.483C104.405 320.483 105.524 321.603 105.524 322.983C105.524 324.364 104.405 325.483 103.024 325.483C101.644 325.483 100.524 324.364 100.524 322.983C100.524 321.603 101.644 320.483 103.024 320.483Z" fill="#FACC15"/>
</g>
<path d="M143.324 49.2996V51.7996C143.324 51.9322 143.377 52.0593 143.471 52.1531C143.565 52.2469 143.692 52.2996 143.824 52.2996C143.957 52.2996 144.084 52.2469 144.178 52.1531C144.272 52.0593 144.324 51.9322 144.324 51.7996V49.2996H146.824C146.957 49.2996 147.084 49.2469 147.178 49.1531C147.272 49.0593 147.324 48.9322 147.324 48.7996C147.324 48.667 147.272 48.5398 147.178 48.446C147.084 48.3522 146.957 48.2996 146.824 48.2996H144.324V45.7996C144.324 45.667 144.272 45.5398 144.178 45.446C144.084 45.3522 143.957 45.2996 143.824 45.2996C143.692 45.2996 143.565 45.3522 143.471 45.446C143.377 45.5398 143.324 45.667 143.324 45.7996V48.2996H140.824C140.692 48.2996 140.565 48.3522 140.471 48.446C140.377 48.5398 140.324 48.667 140.324 48.7996C140.324 48.9322 140.377 49.0593 140.471 49.1531C140.565 49.2469 140.692 49.2996 140.824 49.2996H143.324Z" fill="#FACC15"/>
<path d="M57.2507 172.52L56.5142 173.257C56.4943 173.276 56.4785 173.299 56.4676 173.325C56.4566 173.35 56.4509 173.377 56.4506 173.405C56.4504 173.433 56.4557 173.46 56.4662 173.486C56.4766 173.511 56.4921 173.535 56.5117 173.554C56.5312 173.574 56.5545 173.589 56.5801 173.6C56.6057 173.61 56.6331 173.615 56.6608 173.615C56.6884 173.615 56.7158 173.609 56.7412 173.598C56.7666 173.587 56.7896 173.572 56.8088 173.552L57.5455 172.815L58.282 173.552C58.3012 173.572 58.3242 173.587 58.3496 173.598C58.375 173.609 58.4023 173.615 58.43 173.615C58.4577 173.615 58.4851 173.61 58.5107 173.6C58.5363 173.589 58.5596 173.574 58.5791 173.554C58.5987 173.535 58.6141 173.511 58.6246 173.486C58.6351 173.46 58.6404 173.433 58.6401 173.405C58.6399 173.377 58.6341 173.35 58.6232 173.325C58.6123 173.299 58.5964 173.276 58.5765 173.257L57.8401 172.521L58.5765 171.784C58.5964 171.765 58.6123 171.742 58.6232 171.716C58.6341 171.691 58.6399 171.664 58.6401 171.636C58.6404 171.608 58.6351 171.581 58.6246 171.555C58.6141 171.53 58.5987 171.506 58.5791 171.487C58.5596 171.467 58.5363 171.452 58.5107 171.441C58.4851 171.431 58.4577 171.426 58.43 171.426C58.4023 171.426 58.375 171.432 58.3496 171.443C58.3242 171.454 58.3012 171.469 58.282 171.489L57.5455 172.226L56.8088 171.489C56.7896 171.469 56.7666 171.454 56.7412 171.443C56.7158 171.432 56.6884 171.426 56.6608 171.426C56.6331 171.426 56.6057 171.431 56.5801 171.441C56.5545 171.452 56.5312 171.467 56.5117 171.487C56.4921 171.506 56.4766 171.53 56.4662 171.555C56.4557 171.581 56.4504 171.608 56.4506 171.636C56.4509 171.664 56.4566 171.691 56.4676 171.716C56.4785 171.742 56.4943 171.765 56.5142 171.784L57.2507 172.521V172.52Z" fill="#FACC15"/>
<path d="M155.703 582.562L153.494 584.772C153.434 584.83 153.387 584.899 153.354 584.975C153.321 585.051 153.304 585.133 153.303 585.216C153.302 585.299 153.318 585.382 153.35 585.458C153.381 585.535 153.427 585.605 153.486 585.664C153.545 585.722 153.615 585.769 153.691 585.8C153.768 585.832 153.851 585.847 153.934 585.847C154.017 585.846 154.099 585.829 154.175 585.796C154.251 585.763 154.32 585.716 154.378 585.656L156.588 583.446L158.797 585.656C158.855 585.716 158.924 585.763 159 585.796C159.076 585.829 159.158 585.846 159.241 585.847C159.324 585.847 159.406 585.832 159.483 585.8C159.56 585.769 159.63 585.722 159.689 585.664C159.747 585.605 159.794 585.535 159.825 585.458C159.856 585.382 159.872 585.299 159.872 585.216C159.871 585.133 159.854 585.051 159.821 584.975C159.788 584.899 159.74 584.83 159.681 584.772L157.471 582.563L159.681 580.353C159.74 580.295 159.788 580.226 159.821 580.15C159.854 580.074 159.871 579.992 159.872 579.909C159.872 579.826 159.856 579.743 159.825 579.667C159.794 579.59 159.747 579.52 159.689 579.461C159.63 579.403 159.56 579.356 159.483 579.325C159.406 579.293 159.324 579.277 159.241 579.278C159.158 579.279 159.076 579.296 159 579.329C158.924 579.362 158.855 579.409 158.797 579.469L156.588 581.678L154.378 579.469C154.32 579.409 154.251 579.362 154.175 579.329C154.099 579.296 154.017 579.279 153.934 579.278C153.851 579.277 153.768 579.293 153.691 579.325C153.615 579.356 153.545 579.403 153.486 579.461C153.427 579.52 153.381 579.59 153.35 579.667C153.318 579.743 153.302 579.826 153.303 579.909C153.304 579.992 153.321 580.074 153.354 580.15C153.387 580.226 153.434 580.295 153.494 580.353L155.703 582.563V582.562Z" fill="#FACC15"/>
<path d="M63.2883 14.3002V16.8002C63.2883 16.9328 63.341 17.06 63.4348 17.1537C63.5285 17.2475 63.6557 17.3002 63.7883 17.3002C63.9209 17.3002 64.0481 17.2475 64.1419 17.1537C64.2357 17.06 64.2883 16.9328 64.2883 16.8002V14.3002H66.7883C66.9209 14.3002 67.0481 14.2475 67.1419 14.1537C67.2357 14.06 67.2883 13.9328 67.2883 13.8002C67.2883 13.6676 67.2357 13.5404 67.1419 13.4466C67.0481 13.3528 66.9209 13.3002 66.7883 13.3002H64.2883V10.8002C64.2883 10.6676 64.2357 10.5404 64.1419 10.4466C64.0481 10.3528 63.9209 10.3002 63.7883 10.3002C63.6557 10.3002 63.5285 10.3528 63.4348 10.4466C63.341 10.5404 63.2883 10.6676 63.2883 10.8002V13.3002H60.7883C60.6557 13.3002 60.5285 13.3528 60.4348 13.4466C60.341 13.5404 60.2883 13.6676 60.2883 13.8002C60.2883 13.9328 60.341 14.06 60.4348 14.1537C60.5285 14.2475 60.6557 14.3002 60.7883 14.3002H63.2883Z" fill="#FACC15"/>
<path d="M130.441 528.25V530.333C130.441 530.443 130.485 530.549 130.563 530.627C130.641 530.706 130.747 530.75 130.858 530.75C130.968 530.75 131.074 530.706 131.152 530.627C131.231 530.549 131.274 530.443 131.274 530.333V528.25H133.358C133.468 528.25 133.574 528.206 133.652 528.127C133.731 528.049 133.774 527.943 133.774 527.833C133.774 527.722 133.731 527.616 133.652 527.538C133.574 527.46 133.468 527.416 133.358 527.416H131.274V525.333C131.274 525.222 131.231 525.116 131.152 525.038C131.074 524.96 130.968 524.916 130.858 524.916C130.747 524.916 130.641 524.96 130.563 525.038C130.485 525.116 130.441 525.222 130.441 525.333V527.416H128.358C128.247 527.416 128.141 527.46 128.063 527.538C127.985 527.616 127.941 527.722 127.941 527.833C127.941 527.943 127.985 528.049 128.063 528.127C128.141 528.206 128.247 528.25 128.358 528.25H130.441Z" fill="#FACC15"/>
<path d="M80.5865 199.033L79.4081 200.212C79.3763 200.242 79.3509 200.279 79.3334 200.32C79.316 200.36 79.3068 200.404 79.3064 200.448C79.306 200.493 79.3144 200.537 79.3312 200.578C79.348 200.619 79.3727 200.656 79.404 200.687C79.4353 200.718 79.4725 200.743 79.5135 200.76C79.5545 200.777 79.5983 200.785 79.6426 200.785C79.6869 200.784 79.7306 200.775 79.7713 200.758C79.8119 200.74 79.8487 200.715 79.8795 200.683L81.0581 199.505L82.2365 200.683C82.2672 200.715 82.304 200.74 82.3447 200.758C82.3853 200.775 82.4291 200.784 82.4733 200.785C82.5176 200.785 82.5615 200.777 82.6025 200.76C82.6434 200.743 82.6806 200.718 82.7119 200.687C82.7432 200.656 82.768 200.619 82.7847 200.578C82.8015 200.537 82.8099 200.493 82.8096 200.448C82.8092 200.404 82.8 200.36 82.7825 200.32C82.765 200.279 82.7396 200.242 82.7078 200.212L81.5295 199.033L82.7078 197.855C82.7396 197.824 82.765 197.787 82.7825 197.746C82.8 197.706 82.8092 197.662 82.8096 197.618C82.8099 197.573 82.8015 197.53 82.7847 197.489C82.768 197.448 82.7432 197.41 82.7119 197.379C82.6806 197.348 82.6434 197.323 82.6025 197.306C82.5615 197.29 82.5176 197.281 82.4733 197.281C82.4291 197.282 82.3853 197.291 82.3447 197.309C82.304 197.326 82.2672 197.351 82.2365 197.383L81.0581 198.562L79.8795 197.383C79.8487 197.351 79.8119 197.326 79.7713 197.309C79.7306 197.291 79.6869 197.282 79.6426 197.281C79.5983 197.281 79.5545 197.29 79.5135 197.306C79.4725 197.323 79.4353 197.348 79.404 197.379C79.3727 197.41 79.348 197.448 79.3312 197.489C79.3144 197.53 79.306 197.573 79.3064 197.618C79.3068 197.662 79.316 197.706 79.3334 197.746C79.3509 197.787 79.3763 197.824 79.4081 197.855L80.5865 199.033V199.033Z" fill="#FACC15"/>
<path fill-rule="evenodd" clip-rule="evenodd" d="M170.431 173.091C133.54 216.186 101.849 281.227 99.4764 349.654C97.1036 418.081 133.156 467.258 193.052 507.518C305.439 583.061 448.148 547.222 487.755 489.889C524.75 436.338 529.185 394.448 501.955 333.055C474.724 271.662 456.081 228.204 461.967 173.354C467.767 119.317 462.963 85.2738 430.75 69.7304C395.909 52.9193 354.113 50.6062 307.751 69.7302C260.452 89.2403 204.75 133 170.431 173.091Z" fill="#FB923C"/>
<defs>
<clipPath id="clip0_865_22215">
<rect width="11" height="11" fill="white" transform="matrix(-1 0 0 -1 193.024 401)"/>
</clipPath>
<clipPath id="clip1_865_22215">
<rect width="7" height="7" fill="white" transform="matrix(-1 0 0 -1 161.99 221)"/>
</clipPath>
<clipPath id="clip2_865_22215">
<rect width="8" height="8" fill="white" transform="matrix(-1 0 0 -1 163.973 109)"/>
</clipPath>
<clipPath id="clip3_865_22215">
<rect width="10" height="10" fill="white" transform="matrix(-1 0 0 -1 100.024 90.9995)"/>
</clipPath>
<clipPath id="clip4_865_22215">
<rect width="10" height="10" fill="white" transform="matrix(-1 0 0 -1 132.977 185)"/>
</clipPath>
<clipPath id="clip5_865_22215">
<rect width="11" height="11" fill="white" transform="matrix(-1 0 0 -1 183.024 533)"/>
</clipPath>
<clipPath id="clip6_865_22215">
<rect width="4" height="4" fill="white" transform="matrix(-1 0 0 -1 179.024 301)"/>
</clipPath>
<clipPath id="clip7_865_22215">
<rect width="7" height="7" fill="white" transform="matrix(-1 0 0 -1 61 267)"/>
</clipPath>
<clipPath id="clip8_865_22215">
<rect width="6" height="6" fill="white" transform="matrix(-1 0 0 -1 65.9785 499)"/>
</clipPath>
<clipPath id="clip9_865_22215">
<rect width="6" height="6" fill="white" transform="matrix(-1 0 0 -1 106.024 326)"/>
</clipPath>
</defs>
</svg>
