<svg width="534" height="554" viewBox="0 0 534 554" fill="none" xmlns="http://www.w3.org/2000/svg">
<path fill-rule="evenodd" clip-rule="evenodd" d="M26.9327 178.66C0.640848 230.766 -10.9325 304.146 13.1786 374.559C37.2897 444.971 98.8608 487.299 184.868 515.292C346.248 567.817 499.386 499.929 523.265 432.686C545.57 369.878 534.304 326.119 478.269 269.38C422.234 212.641 383.309 172.339 368.651 115.023C354.21 58.5579 335.203 24.8386 291.348 16.0236C243.915 6.48957 194.031 13.2887 147.22 42.985C99.4641 73.281 51.3916 130.187 26.9327 178.66Z" fill="#FB923C"/>
<path d="M394 59.7212L397.601 61.6141L396.913 57.6043L399.828 54.7646L395.801 54.1795L394 50.5308L392.199 54.1795L388.173 54.7646L391.087 57.6043L390.399 61.6141L394 59.7212Z" fill="#FACC15"/>
<g clip-path="url(#clip0_1_10)">
<path d="M460.524 169.424L463.353 170.911L462.813 167.76L465.103 165.529L461.939 165.07L460.524 162.203L459.109 165.07L455.945 165.529L458.235 167.76L457.694 170.911L460.524 169.424Z" fill="#FACC15"/>
</g>
<g clip-path="url(#clip1_1_10)">
<path d="M342.5 92.4354C344.111 92.4354 345.417 91.1296 345.417 89.5187C345.417 87.9078 344.111 86.6021 342.5 86.6021C340.889 86.6021 339.584 87.9078 339.584 89.5187C339.584 91.1296 340.889 92.4354 342.5 92.4354Z" fill="#FACC15"/>
</g>
<g clip-path="url(#clip2_1_10)">
<path d="M441 494.355C442.841 494.355 444.333 492.863 444.333 491.022C444.333 489.181 442.841 487.688 441 487.688C439.159 487.688 437.667 489.181 437.667 491.022C437.667 492.863 439.159 494.355 441 494.355Z" fill="#FACC15"/>
</g>
<g clip-path="url(#clip3_1_10)">
<path d="M285 118.194C287.302 118.194 289.167 116.329 289.167 114.028C289.167 111.726 287.302 109.861 285 109.861C282.699 109.861 280.834 111.726 280.834 114.028C280.834 116.329 282.699 118.194 285 118.194Z" fill="#FACC15"/>
</g>
<g clip-path="url(#clip4_1_10)">
<path d="M215 494.194C217.302 494.194 219.167 492.328 219.167 490.027C219.167 487.726 217.302 485.86 215 485.86C212.699 485.86 210.834 487.726 210.834 490.027C210.834 492.328 212.699 494.194 215 494.194Z" fill="#FACC15"/>
</g>
<g clip-path="url(#clip5_1_10)">
<path d="M424.5 10.1132C427.032 10.1132 429.083 8.06124 429.083 5.52987C429.083 2.99849 427.032 0.946533 424.5 0.946533C421.969 0.946533 419.917 2.99849 419.917 5.52987C419.917 8.06124 421.969 10.1132 424.5 10.1132Z" fill="#FACC15"/>
</g>
<g clip-path="url(#clip6_1_10)">
<path d="M450.024 264.678C450.944 264.678 451.69 263.931 451.69 263.011C451.69 262.09 450.944 261.344 450.024 261.344C449.103 261.344 448.357 262.09 448.357 263.011C448.357 263.931 449.103 264.678 450.024 264.678Z" fill="#FACC15"/>
</g>
<g clip-path="url(#clip7_1_10)">
<path d="M330.5 301.435C332.111 301.435 333.417 300.129 333.417 298.518C333.417 296.907 332.111 295.602 330.5 295.602C328.889 295.602 327.584 296.907 327.584 298.518C327.584 300.129 328.889 301.435 330.5 301.435Z" fill="#FACC15"/>
</g>
<g clip-path="url(#clip8_1_10)">
<path d="M276 32.5164C277.381 32.5164 278.5 31.3971 278.5 30.0164C278.5 28.6356 277.381 27.5164 276 27.5164C274.619 27.5164 273.5 28.6356 273.5 30.0164C273.5 31.3971 274.619 32.5164 276 32.5164Z" fill="#FACC15"/>
</g>
<path d="M415.649 134.125V131C415.649 130.834 415.715 130.675 415.832 130.558C415.949 130.441 416.108 130.375 416.274 130.375C416.439 130.375 416.598 130.441 416.716 130.558C416.833 130.675 416.899 130.834 416.899 131V134.125H420.024C420.189 134.125 420.348 134.191 420.466 134.308C420.583 134.425 420.649 134.584 420.649 134.75C420.649 134.916 420.583 135.075 420.466 135.192C420.348 135.309 420.189 135.375 420.024 135.375H416.899V138.5C416.899 138.666 416.833 138.825 416.716 138.942C416.598 139.059 416.439 139.125 416.274 139.125C416.108 139.125 415.949 139.059 415.832 138.942C415.715 138.825 415.649 138.666 415.649 138.5V135.375H412.524C412.358 135.375 412.199 135.309 412.082 135.192C411.965 135.075 411.899 134.916 411.899 134.75C411.899 134.584 411.965 134.425 412.082 134.308C412.199 134.191 412.358 134.125 412.524 134.125H415.649Z" fill="#FACC15"/>
<path d="M432.557 205.8V204.133C432.557 204.045 432.592 203.96 432.655 203.897C432.717 203.835 432.802 203.8 432.89 203.8C432.979 203.8 433.063 203.835 433.126 203.897C433.189 203.96 433.224 204.045 433.224 204.133V205.8H434.89C434.979 205.8 435.063 205.835 435.126 205.897C435.189 205.96 435.224 206.045 435.224 206.133C435.224 206.222 435.189 206.306 435.126 206.369C435.063 206.431 434.979 206.466 434.89 206.466H433.224V208.133C433.224 208.222 433.189 208.306 433.126 208.369C433.063 208.431 432.979 208.466 432.89 208.466C432.802 208.466 432.717 208.431 432.655 208.369C432.592 208.306 432.557 208.222 432.557 208.133V206.466H430.89C430.802 206.466 430.717 206.431 430.655 206.369C430.592 206.306 430.557 206.222 430.557 206.133C430.557 206.045 430.592 205.96 430.655 205.897C430.717 205.835 430.802 205.8 430.89 205.8H432.557Z" fill="#FACC15"/>
<g clip-path="url(#clip9_1_10)">
<path d="M376.025 241.516C377.405 241.516 378.525 240.397 378.525 239.016C378.525 237.635 377.405 236.516 376.025 236.516C374.644 236.516 373.525 237.635 373.525 239.016C373.525 240.397 374.644 241.516 376.025 241.516Z" fill="#FACC15"/>
</g>
<path d="M333.299 150.701V148.201C333.299 148.068 333.352 147.941 333.446 147.847C333.54 147.753 333.667 147.701 333.799 147.701C333.932 147.701 334.059 147.753 334.153 147.847C334.247 147.941 334.299 148.068 334.299 148.201V150.701H336.799C336.932 150.701 337.059 150.753 337.153 150.847C337.247 150.941 337.299 151.068 337.299 151.201C337.299 151.333 337.247 151.46 337.153 151.554C337.059 151.648 336.932 151.701 336.799 151.701H334.299V154.201C334.299 154.333 334.247 154.46 334.153 154.554C334.059 154.648 333.932 154.701 333.799 154.701C333.667 154.701 333.54 154.648 333.446 154.554C333.352 154.46 333.299 154.333 333.299 154.201V151.701H330.799C330.667 151.701 330.54 151.648 330.446 151.554C330.352 151.46 330.299 151.333 330.299 151.201C330.299 151.068 330.352 150.941 330.446 150.847C330.54 150.753 330.667 150.701 330.799 150.701H333.299Z" fill="#FACC15"/>
<path d="M330.251 389.479L329.514 388.742C329.495 388.723 329.479 388.7 329.468 388.675C329.457 388.649 329.451 388.622 329.451 388.594C329.451 388.567 329.456 388.539 329.466 388.514C329.477 388.488 329.492 388.465 329.512 388.445C329.531 388.426 329.555 388.41 329.58 388.4C329.606 388.389 329.633 388.384 329.661 388.384C329.689 388.385 329.716 388.39 329.741 388.401C329.767 388.412 329.79 388.428 329.809 388.448L330.546 389.184L331.282 388.448C331.301 388.428 331.324 388.412 331.35 388.401C331.375 388.39 331.403 388.385 331.43 388.384C331.458 388.384 331.485 388.389 331.511 388.4C331.537 388.41 331.56 388.426 331.579 388.445C331.599 388.465 331.614 388.488 331.625 388.514C331.635 388.539 331.641 388.567 331.64 388.594C331.64 388.622 331.634 388.649 331.623 388.675C331.613 388.7 331.597 388.723 331.577 388.742L330.84 389.479L331.577 390.216C331.597 390.235 331.613 390.258 331.623 390.283C331.634 390.309 331.64 390.336 331.64 390.364C331.641 390.391 331.635 390.419 331.625 390.444C331.614 390.47 331.599 390.493 331.579 390.513C331.56 390.532 331.537 390.548 331.511 390.558C331.485 390.569 331.458 390.574 331.43 390.574C331.403 390.574 331.375 390.568 331.35 390.557C331.324 390.546 331.301 390.53 331.282 390.51L330.546 389.774L329.809 390.51C329.79 390.53 329.767 390.546 329.741 390.557C329.716 390.568 329.689 390.574 329.661 390.574C329.633 390.574 329.606 390.569 329.58 390.558C329.555 390.548 329.531 390.532 329.512 390.513C329.492 390.493 329.477 390.47 329.466 390.444C329.456 390.419 329.451 390.391 329.451 390.364C329.451 390.336 329.457 390.309 329.468 390.283C329.479 390.258 329.495 390.235 329.514 390.216L330.251 389.479V389.479Z" fill="#FACC15"/>
<path d="M357.679 26.4374L355.47 24.2274C355.41 24.1697 355.362 24.1008 355.33 24.0245C355.297 23.9483 355.28 23.8662 355.279 23.7833C355.278 23.7003 355.294 23.618 355.325 23.5412C355.357 23.4644 355.403 23.3946 355.462 23.3359C355.521 23.2772 355.59 23.2308 355.667 23.1994C355.744 23.1679 355.826 23.1521 355.909 23.1529C355.992 23.1536 356.074 23.1708 356.151 23.2036C356.227 23.2363 356.296 23.2839 356.353 23.3436L358.563 25.553L360.773 23.3436C360.831 23.2839 360.899 23.2363 360.976 23.2036C361.052 23.1708 361.134 23.1536 361.217 23.1529C361.3 23.1521 361.382 23.1679 361.459 23.1994C361.536 23.2308 361.606 23.2772 361.664 23.3359C361.723 23.3946 361.769 23.4644 361.801 23.5412C361.832 23.618 361.848 23.7003 361.847 23.7833C361.847 23.8662 361.829 23.9483 361.797 24.0245C361.764 24.1008 361.716 24.1697 361.657 24.2274L359.447 26.4368L361.657 28.6468C361.716 28.7044 361.764 28.7734 361.797 28.8496C361.829 28.9259 361.847 29.0079 361.847 29.0909C361.848 29.1739 361.832 29.2562 361.801 29.333C361.769 29.4098 361.723 29.4796 361.664 29.5383C361.606 29.5969 361.536 29.6434 361.459 29.6748C361.382 29.7062 361.3 29.722 361.217 29.7213C361.134 29.7206 361.052 29.7033 360.976 29.6706C360.899 29.6378 360.831 29.5902 360.773 29.5305L358.563 27.3211L356.353 29.5305C356.296 29.5902 356.227 29.6378 356.151 29.6706C356.074 29.7033 355.992 29.7206 355.909 29.7213C355.826 29.722 355.744 29.7062 355.667 29.6748C355.59 29.6434 355.521 29.5969 355.462 29.5383C355.403 29.4796 355.357 29.4098 355.325 29.333C355.294 29.2562 355.278 29.1739 355.279 29.0909C355.28 29.0079 355.297 28.9259 355.33 28.8496C355.362 28.7734 355.41 28.7044 355.47 28.6468L357.679 26.4368V26.4374Z" fill="#FACC15"/>
<path d="M336.289 547.7V545.2C336.289 545.067 336.341 544.94 336.435 544.846C336.529 544.752 336.656 544.7 336.789 544.7C336.921 544.7 337.048 544.752 337.142 544.846C337.236 544.94 337.289 545.067 337.289 545.2V547.7H339.789C339.921 547.7 340.048 547.752 340.142 547.846C340.236 547.94 340.289 548.067 340.289 548.2C340.289 548.332 340.236 548.459 340.142 548.553C340.048 548.647 339.921 548.7 339.789 548.7H337.289V551.2C337.289 551.332 337.236 551.459 337.142 551.553C337.048 551.647 336.921 551.7 336.789 551.7C336.656 551.7 336.529 551.647 336.435 551.553C336.341 551.459 336.289 551.332 336.289 551.2V548.7H333.789C333.656 548.7 333.529 548.647 333.435 548.553C333.341 548.459 333.289 548.332 333.289 548.2C333.289 548.067 333.341 547.94 333.435 547.846C333.529 547.752 333.656 547.7 333.789 547.7H336.289Z" fill="#FACC15"/>
<path d="M378.305 102.7V100.2C378.305 100.068 378.358 99.9404 378.452 99.8466C378.545 99.7529 378.673 99.7002 378.805 99.7002C378.938 99.7002 379.065 99.7529 379.159 99.8466C379.252 99.9404 379.305 100.068 379.305 100.2V102.7H381.805C381.938 102.7 382.065 102.753 382.159 102.847C382.252 102.94 382.305 103.068 382.305 103.2C382.305 103.333 382.252 103.46 382.159 103.554C382.065 103.648 381.938 103.7 381.805 103.7H379.305V106.2C379.305 106.333 379.252 106.46 379.159 106.554C379.065 106.648 378.938 106.7 378.805 106.7C378.673 106.7 378.545 106.648 378.452 106.554C378.358 106.46 378.305 106.333 378.305 106.2V103.7H375.805C375.673 103.7 375.545 103.648 375.452 103.554C375.358 103.46 375.305 103.333 375.305 103.2C375.305 103.068 375.358 102.94 375.452 102.847C375.545 102.753 375.673 102.7 375.805 102.7H378.305Z" fill="#FACC15"/>
<path d="M302.343 72.9499L300.576 71.1819C300.528 71.1358 300.49 71.0806 300.464 71.0196C300.438 70.9586 300.424 70.893 300.423 70.8266C300.423 70.7602 300.435 70.6944 300.46 70.6329C300.486 70.5715 300.523 70.5157 300.57 70.4687C300.617 70.4218 300.672 70.3846 300.734 70.3595C300.795 70.3344 300.861 70.3217 300.928 70.3223C300.994 70.3229 301.06 70.3367 301.121 70.3629C301.182 70.3891 301.237 70.4272 301.283 70.4749L303.051 72.2424L304.818 70.4749C304.864 70.4272 304.92 70.3891 304.981 70.3629C305.042 70.3367 305.107 70.3229 305.174 70.3223C305.24 70.3217 305.306 70.3344 305.367 70.3595C305.429 70.3846 305.485 70.4218 305.532 70.4687C305.578 70.5157 305.616 70.5715 305.641 70.6329C305.666 70.6944 305.679 70.7602 305.678 70.8266C305.677 70.893 305.664 70.9586 305.637 71.0196C305.611 71.0806 305.573 71.1358 305.525 71.1819L303.758 72.9494L305.525 74.7174C305.573 74.7635 305.611 74.8187 305.637 74.8797C305.664 74.9407 305.677 75.0063 305.678 75.0727C305.679 75.1391 305.666 75.2049 305.641 75.2664C305.616 75.3278 305.578 75.3837 305.532 75.4306C305.485 75.4776 305.429 75.5147 305.367 75.5398C305.306 75.565 305.24 75.5776 305.174 75.577C305.107 75.5765 305.042 75.5627 304.981 75.5365C304.92 75.5103 304.864 75.4722 304.818 75.4244L303.051 73.6569L301.283 75.4244C301.237 75.4722 301.182 75.5103 301.121 75.5365C301.06 75.5627 300.994 75.5765 300.928 75.577C300.861 75.5776 300.795 75.565 300.734 75.5398C300.672 75.5147 300.617 75.4776 300.57 75.4306C300.523 75.3837 300.486 75.3278 300.46 75.2664C300.435 75.2049 300.423 75.1391 300.423 75.0727C300.424 75.0063 300.438 74.9407 300.464 74.8797C300.49 74.8187 300.528 74.7635 300.576 74.7174L302.343 72.9494V72.9499Z" fill="#FACC15"/>
<defs>
<clipPath id="clip0_1_10">
<rect width="11" height="11" fill="white" transform="matrix(-1 0 0 1 466.024 161)"/>
</clipPath>
<clipPath id="clip1_1_10">
<rect width="7" height="7" fill="white" transform="matrix(-1 0 0 1 346 86)"/>
</clipPath>
<clipPath id="clip2_1_10">
<rect width="8" height="8" fill="white" transform="matrix(-1 0 0 1 445 487)"/>
</clipPath>
<clipPath id="clip3_1_10">
<rect width="10" height="10" fill="white" transform="matrix(-1 0 0 1 290 109)"/>
</clipPath>
<clipPath id="clip4_1_10">
<rect width="10" height="10" fill="white" transform="matrix(-1 0 0 1 220 485)"/>
</clipPath>
<clipPath id="clip5_1_10">
<rect width="11" height="11" fill="white" transform="matrix(-1 0 0 1 430 0)"/>
</clipPath>
<clipPath id="clip6_1_10">
<rect width="4" height="4" fill="white" transform="matrix(-1 0 0 1 452.024 261)"/>
</clipPath>
<clipPath id="clip7_1_10">
<rect width="7" height="7" fill="white" transform="matrix(-1 0 0 1 334 295)"/>
</clipPath>
<clipPath id="clip8_1_10">
<rect width="6" height="6" fill="white" transform="matrix(-1 0 0 1 279 27)"/>
</clipPath>
<clipPath id="clip9_1_10">
<rect width="6" height="6" fill="white" transform="matrix(-1 0 0 1 379.025 236)"/>
</clipPath>
</defs>
</svg>
