<svg width="1095" height="79" viewBox="0 0 1095 79" fill="none" xmlns="http://www.w3.org/2000/svg">
<path d="M1 78C1 -34 548 49 548 0" stroke="#CBD5E1" stroke-dasharray="6 6"/>
<path d="M274 78C274 14 548 49 548 0" stroke="#CBD5E1" stroke-dasharray="6 6"/>
<path d="M410 78C410 17 548 49 548 0" stroke="#CBD5E1" stroke-dasharray="6 6"/>
<path d="M1094 78C1094 -34 547 49 547 0" stroke="#CBD5E1" stroke-dasharray="6 6"/>
<path d="M959 78C962 -4 547 49 547 0" stroke="#CBD5E1" stroke-dasharray="6 6"/>
<path d="M821 78C821 14 547 49 547 0" stroke="#CBD5E1" stroke-dasharray="6 6"/>
<path d="M548 3L548 78" stroke="#CBD5E1" stroke-dasharray="6 6"/>
<path d="M685 78C685 17 547 49 547 0" stroke="#CBD5E1" stroke-dasharray="6 6"/>
<path d="M136 78C133 -4 548 49 548 0" stroke="#FB923C" stroke-dasharray="6 6"/>
</svg>