<svg width="42" height="41" viewBox="0 0 42 41" fill="none" xmlns="http://www.w3.org/2000/svg">
<g filter="url(#filter0_i_855_9420)">
<path d="M36.4727 0.268066H5.53936C3.77204 0.268066 2.33936 1.70076 2.33936 3.46807V8.26807C2.33936 10.0354 3.77204 11.4681 5.53936 11.4681H36.4727C38.24 11.4681 39.6727 10.0354 39.6727 8.26807V3.46807C39.6727 1.70076 38.24 0.268066 36.4727 0.268066Z" fill="#C4C4C4"/>
</g>
<path fill-rule="evenodd" clip-rule="evenodd" d="M9.77295 4.62989L13.7752 8.80941H17.954L11.9938 2.32141L9.77295 4.62989Z" fill="url(#paint0_linear_855_9420)"/>
<g filter="url(#filter1_d_855_9420)">
<path fill-rule="evenodd" clip-rule="evenodd" d="M10.8725 5.06816C11.7561 5.06816 12.4725 4.35184 12.4725 3.46816C12.4725 2.58448 11.7561 1.86816 10.8725 1.86816C9.98878 1.86816 9.27246 2.58448 9.27246 3.46816C9.27246 4.35184 9.98878 5.06816 10.8725 5.06816Z" fill="#EFEFEF"/>
</g>
<path fill-rule="evenodd" clip-rule="evenodd" d="M30.0396 4.62989L34.0418 8.80941H38.2206L32.2603 2.32141L30.0396 4.62989Z" fill="url(#paint1_linear_855_9420)"/>
<g filter="url(#filter2_d_855_9420)">
<path fill-rule="evenodd" clip-rule="evenodd" d="M31.1391 5.06816C32.0227 5.06816 32.7391 4.35184 32.7391 3.46816C32.7391 2.58448 32.0227 1.86816 31.1391 1.86816C30.2554 1.86816 29.5391 2.58448 29.5391 3.46816C29.5391 4.35184 30.2554 5.06816 31.1391 5.06816Z" fill="#EFEFEF"/>
</g>
<g filter="url(#filter3_i_855_9420)">
<path fill-rule="evenodd" clip-rule="evenodd" d="M41.8706 9.8682C42.1405 8.10116 40.8907 6.66809 39.0786 6.66809H2.9215C1.11083 6.66809 -0.14069 8.10084 0.129443 9.8682L2.24875 23.7331L1.10112 37.5964C0.830991 39.3638 3.18742 40.7965 4.99808 40.7965H37.1893C39.0014 40.7965 40.8174 39.3634 40.5474 37.5964L39.7513 23.7334L41.8706 9.8682Z" fill="#4687F4"/>
</g>
<g filter="url(#filter4_i_855_9420)">
<path fill-rule="evenodd" clip-rule="evenodd" d="M2.9215 6.66809H39.0786C40.8907 6.66809 42.1405 8.10116 41.8706 9.8682L39.751 23.7348H2.24896L0.129443 9.8682C-0.14069 8.10084 1.11083 6.66809 2.9215 6.66809Z" fill="#3866D0"/>
</g>
<path fill-rule="evenodd" clip-rule="evenodd" d="M37.1903 40.7966C39.0024 40.7966 40.8184 39.3635 40.5484 37.5965L39.7455 23.9968H2.23071L18.4303 40.7966H37.1903Z" fill="url(#paint2_linear_855_9420)"/>
<path fill-rule="evenodd" clip-rule="evenodd" d="M23.597 17.1216L30.5559 14.4619V32.8611H28.4078V17.4352L23.597 19.2263V17.1216ZM13.1833 22.5492H15.2654C16.3226 22.5492 17.071 22.2812 17.5108 21.745C17.9507 21.2088 18.1706 20.462 18.1706 19.5043C18.1706 18.4811 17.9204 17.7035 17.42 17.1715C16.9197 16.6394 16.1813 16.3734 15.2048 16.3734C14.2768 16.3734 13.5323 16.6496 12.9715 17.2022C12.4106 17.7547 12.1302 18.4893 12.1302 19.4061H9.84229L9.81807 19.3324C9.77775 17.9818 10.2599 16.8338 11.2646 15.8884C12.2694 14.943 13.5828 14.4703 15.2048 14.4703C16.835 14.4703 18.1342 14.9103 19.1027 15.7902C20.0711 16.6701 20.5552 17.9245 20.5552 19.5534C20.5552 20.2901 20.3354 21.0247 19.8955 21.7573C19.4557 22.4899 18.796 23.0485 17.9164 23.4332C18.9735 23.7852 19.722 24.3377 20.1619 25.0908C20.6016 25.8438 20.8216 26.6869 20.8216 27.62C20.8216 29.2489 20.295 30.5299 19.2419 31.463C18.1887 32.3962 16.843 32.8627 15.2048 32.8627C13.5989 32.8627 12.2694 32.4228 11.2162 31.5428C10.1631 30.6629 9.65669 29.4699 9.69706 27.9638L9.73338 27.8901H12.0091C12.0091 28.8315 12.2936 29.5804 12.8625 30.137C13.4315 30.6936 14.2122 30.9719 15.2048 30.9719C16.2136 30.9719 17.0045 30.6936 17.5774 30.137C18.1504 29.5804 18.4369 28.7578 18.4369 27.6691C18.4369 26.5641 18.1827 25.7496 17.6743 25.2258C17.1659 24.702 16.3629 24.44 15.2654 24.44H13.1833V22.5492Z" fill="#EEEEEE"/>
<path fill-rule="evenodd" clip-rule="evenodd" d="M18.6541 23.7362H13.1832V22.5492H15.2653C16.3224 22.5492 17.0709 22.2812 17.5108 21.745C17.9505 21.2088 18.1705 20.462 18.1705 19.5043C18.1705 18.4811 17.9203 17.7035 17.42 17.1715C16.9196 16.6394 16.1812 16.3734 15.2047 16.3734C14.2767 16.3734 13.5323 16.6496 12.9713 17.2022C12.4105 17.7547 12.1301 18.4893 12.1301 19.4061H9.84223L9.81801 19.3324C9.77764 17.9818 10.2598 16.8338 11.2646 15.8884C12.2693 14.943 13.5827 14.4703 15.2047 14.4703C16.8349 14.4703 18.1342 14.9103 19.1025 15.7902C20.071 16.6701 20.5552 17.9245 20.5552 19.5534C20.5552 20.2901 20.3352 21.0247 19.8955 21.7573C19.4556 22.4899 18.7959 23.0485 17.9163 23.4332C18.1816 23.5216 18.4276 23.6226 18.6541 23.7362ZM30.5559 23.727V14.4619L23.5969 17.1216V19.2263L28.4077 17.4352V23.727H30.5559Z" fill="#D4D4D4"/>
<g filter="url(#filter5_i_855_9420)">
<path fill-rule="evenodd" clip-rule="evenodd" d="M4.99882 40.7965H37.19C39.0022 40.7965 40.8182 39.3635 40.5481 37.5964L39.7518 23.7299H2.24975L1.10186 37.5964C0.831723 39.3638 3.18815 40.7965 4.99882 40.7965Z" fill="black" fill-opacity="0.01"/>
</g>
<defs>
<filter id="filter0_i_855_9420" x="2.33936" y="0.268066" width="37.3333" height="12.2" filterUnits="userSpaceOnUse" color-interpolation-filters="sRGB">
<feFlood flood-opacity="0" result="BackgroundImageFix"/>
<feBlend mode="normal" in="SourceGraphic" in2="BackgroundImageFix" result="shape"/>
<feColorMatrix in="SourceAlpha" type="matrix" values="0 0 0 0 0 0 0 0 0 0 0 0 0 0 0 0 0 0 127 0" result="hardAlpha"/>
<feOffset dy="1"/>
<feGaussianBlur stdDeviation="2"/>
<feComposite in2="hardAlpha" operator="arithmetic" k2="-1" k3="1"/>
<feColorMatrix type="matrix" values="0 0 0 0 0.792157 0 0 0 0 0.792157 0 0 0 0 0.792157 0 0 0 1 0"/>
<feBlend mode="normal" in2="shape" result="effect1_innerShadow_855_9420"/>
</filter>
<filter id="filter1_d_855_9420" x="8.77246" y="1.86816" width="5.19995" height="5.19995" filterUnits="userSpaceOnUse" color-interpolation-filters="sRGB">
<feFlood flood-opacity="0" result="BackgroundImageFix"/>
<feColorMatrix in="SourceAlpha" type="matrix" values="0 0 0 0 0 0 0 0 0 0 0 0 0 0 0 0 0 0 127 0" result="hardAlpha"/>
<feOffset dx="0.5" dy="1"/>
<feGaussianBlur stdDeviation="0.5"/>
<feColorMatrix type="matrix" values="0 0 0 0 0 0 0 0 0 0 0 0 0 0 0 0 0 0 0.1 0"/>
<feBlend mode="normal" in2="BackgroundImageFix" result="effect1_dropShadow_855_9420"/>
<feBlend mode="normal" in="SourceGraphic" in2="effect1_dropShadow_855_9420" result="shape"/>
</filter>
<filter id="filter2_d_855_9420" x="29.0391" y="1.86816" width="5.19995" height="5.19995" filterUnits="userSpaceOnUse" color-interpolation-filters="sRGB">
<feFlood flood-opacity="0" result="BackgroundImageFix"/>
<feColorMatrix in="SourceAlpha" type="matrix" values="0 0 0 0 0 0 0 0 0 0 0 0 0 0 0 0 0 0 127 0" result="hardAlpha"/>
<feOffset dx="0.5" dy="1"/>
<feGaussianBlur stdDeviation="0.5"/>
<feColorMatrix type="matrix" values="0 0 0 0 0 0 0 0 0 0 0 0 0 0 0 0 0 0 0.1 0"/>
<feBlend mode="normal" in2="BackgroundImageFix" result="effect1_dropShadow_855_9420"/>
<feBlend mode="normal" in="SourceGraphic" in2="effect1_dropShadow_855_9420" result="shape"/>
</filter>
<filter id="filter3_i_855_9420" x="0.0927734" y="5.66809" width="41.8145" height="35.1284" filterUnits="userSpaceOnUse" color-interpolation-filters="sRGB">
<feFlood flood-opacity="0" result="BackgroundImageFix"/>
<feBlend mode="normal" in="SourceGraphic" in2="BackgroundImageFix" result="shape"/>
<feColorMatrix in="SourceAlpha" type="matrix" values="0 0 0 0 0 0 0 0 0 0 0 0 0 0 0 0 0 0 127 0" result="hardAlpha"/>
<feOffset dy="-1"/>
<feGaussianBlur stdDeviation="2"/>
<feComposite in2="hardAlpha" operator="arithmetic" k2="-1" k3="1"/>
<feColorMatrix type="matrix" values="0 0 0 0 0.258824 0 0 0 0 0.494118 0 0 0 0 0.913725 0 0 0 1 0"/>
<feBlend mode="normal" in2="shape" result="effect1_innerShadow_855_9420"/>
</filter>
<filter id="filter4_i_855_9420" x="0.0927734" y="6.66809" width="41.8145" height="18.0667" filterUnits="userSpaceOnUse" color-interpolation-filters="sRGB">
<feFlood flood-opacity="0" result="BackgroundImageFix"/>
<feBlend mode="normal" in="SourceGraphic" in2="BackgroundImageFix" result="shape"/>
<feColorMatrix in="SourceAlpha" type="matrix" values="0 0 0 0 0 0 0 0 0 0 0 0 0 0 0 0 0 0 127 0" result="hardAlpha"/>
<feOffset dy="1"/>
<feGaussianBlur stdDeviation="2"/>
<feComposite in2="hardAlpha" operator="arithmetic" k2="-1" k3="1"/>
<feColorMatrix type="matrix" values="0 0 0 0 0.282353 0 0 0 0 0.45098 0 0 0 0 0.831373 0 0 0 1 0"/>
<feBlend mode="normal" in2="shape" result="effect1_innerShadow_855_9420"/>
</filter>
<filter id="filter5_i_855_9420" x="1.08057" y="23.7299" width="39.4944" height="17.5667" filterUnits="userSpaceOnUse" color-interpolation-filters="sRGB">
<feFlood flood-opacity="0" result="BackgroundImageFix"/>
<feBlend mode="normal" in="SourceGraphic" in2="BackgroundImageFix" result="shape"/>
<feColorMatrix in="SourceAlpha" type="matrix" values="0 0 0 0 0 0 0 0 0 0 0 0 0 0 0 0 0 0 127 0" result="hardAlpha"/>
<feOffset dy="0.5"/>
<feGaussianBlur stdDeviation="2"/>
<feComposite in2="hardAlpha" operator="arithmetic" k2="-1" k3="1"/>
<feColorMatrix type="matrix" values="0 0 0 0 0.588542 0 0 0 0 0.588542 0 0 0 0 0.588542 0 0 0 0.2 0"/>
<feBlend mode="normal" in2="shape" result="effect1_innerShadow_855_9420"/>
</filter>
<linearGradient id="paint0_linear_855_9420" x1="7.89322" y1="5.37874" x2="11.0545" y2="11.2567" gradientUnits="userSpaceOnUse">
<stop stop-color="#B0B0B0"/>
<stop offset="1" stop-color="#D8D8D8" stop-opacity="0.01"/>
</linearGradient>
<linearGradient id="paint1_linear_855_9420" x1="28.1598" y1="5.37874" x2="31.3212" y2="11.2567" gradientUnits="userSpaceOnUse">
<stop stop-color="#B0B0B0"/>
<stop offset="1" stop-color="#D8D8D8" stop-opacity="0.01"/>
</linearGradient>
<linearGradient id="paint2_linear_855_9420" x1="7.64869" y1="25.9387" x2="9.43978" y2="41.8661" gradientUnits="userSpaceOnUse">
<stop stop-color="#3C78DD"/>
<stop offset="1" stop-color="#4688F4" stop-opacity="0.01"/>
</linearGradient>
</defs>
</svg>
