<svg width="42" height="42" viewBox="0 0 42 42" fill="none" xmlns="http://www.w3.org/2000/svg">
<path d="M37.7999 -0.000976562H4.19989C2.13802 -0.000976562 0.466553 1.67049 0.466553 3.73236V37.3324C0.466553 39.3942 2.13802 41.0657 4.19989 41.0657H37.7999C39.8617 41.0657 41.5332 39.3942 41.5332 37.3324V3.73236C41.5332 1.67049 39.8617 -0.000976562 37.7999 -0.000976562Z" fill="#4C8BF5"/>
<mask id="mask0_855_371" style="mask-type:alpha" maskUnits="userSpaceOnUse" x="0" y="-1" width="42" height="43">
<path d="M37.7999 -0.000976562H4.19989C2.13802 -0.000976562 0.466553 1.67049 0.466553 3.73236V37.3324C0.466553 39.3942 2.13802 41.0657 4.19989 41.0657H37.7999C39.8617 41.0657 41.5332 39.3942 41.5332 37.3324V3.73236C41.5332 1.67049 39.8617 -0.000976562 37.7999 -0.000976562Z" fill="white"/>
</mask>
<g mask="url(#mask0_855_371)">
<path fill-rule="evenodd" clip-rule="evenodd" d="M9.78687 32.332L20.4664 42.3931H42.2163L42.5998 19.7323L32.4978 9.01147L31.9161 27.4394L18.9085 32.332H9.78687Z" fill="url(#paint0_linear_855_371)"/>
<g filter="url(#filter0_ii_855_371)">
<path d="M37.7999 -0.000976562H4.19989C2.13802 -0.000976562 0.466553 1.67049 0.466553 3.73236V37.3324C0.466553 39.3942 2.13802 41.0657 4.19989 41.0657H37.7999C39.8617 41.0657 41.5332 39.3942 41.5332 37.3324V3.73236C41.5332 1.67049 39.8617 -0.000976562 37.7999 -0.000976562Z" fill="black" fill-opacity="0.01"/>
</g>
</g>
<mask id="mask1_855_371" style="mask-type:alpha" maskUnits="userSpaceOnUse" x="0" y="-1" width="42" height="43">
<path d="M37.7999 -0.000976562H4.19989C2.13802 -0.000976562 0.466553 1.67049 0.466553 3.73236V37.3324C0.466553 39.3942 2.13802 41.0657 4.19989 41.0657H37.7999C39.8617 41.0657 41.5332 39.3942 41.5332 37.3324V3.73236C41.5332 1.67049 39.8617 -0.000976562 37.7999 -0.000976562Z" fill="white"/>
</mask>
<g mask="url(#mask1_855_371)">
<g filter="url(#filter1_d_855_371)">
<path fill-rule="evenodd" clip-rule="evenodd" d="M20.9998 36.7991C29.9837 36.7991 37.2665 29.5163 37.2665 20.5324C37.2665 11.5486 29.9837 4.26575 20.9998 4.26575C12.016 4.26575 4.73315 11.5486 4.73315 20.5324C4.73315 29.5163 12.016 36.7991 20.9998 36.7991Z" fill="#F5F5F5"/>
</g>
<path fill-rule="evenodd" clip-rule="evenodd" d="M18.2992 12.3311C16.1383 13.0539 14.2971 14.635 13.2715 16.6357C12.9138 17.3259 12.6562 18.0581 12.4988 18.8183C12.1076 20.7024 12.3795 22.7124 13.2668 24.4287C13.8439 25.5479 14.6739 26.5459 15.6756 27.3248C16.6249 28.0616 17.7268 28.612 18.9002 28.9151C20.3789 29.3022 21.9531 29.2929 23.4413 28.9617C24.7864 28.6586 26.06 28.029 27.0761 27.1149C28.1493 26.1495 28.9173 24.881 29.3228 23.5146C29.7664 22.0269 29.8236 20.4366 29.547 18.9069H21.1994V22.2927H26.0362C25.8502 23.3746 25.1919 24.3634 24.2618 24.9743C23.675 25.3614 23.0024 25.6086 22.306 25.7298C21.6096 25.8464 20.8845 25.8604 20.1881 25.7251C19.4774 25.5853 18.8048 25.2961 18.2133 24.8904C17.2688 24.2421 16.5486 23.2954 16.1813 22.2274C15.8044 21.1408 15.7997 19.9329 16.1813 18.8509C16.4484 18.0861 16.8872 17.3818 17.4692 16.8035C18.1847 16.0854 19.1149 15.5723 20.1213 15.3625C20.9799 15.1853 21.8862 15.2179 22.7258 15.4651C23.4413 15.675 24.0996 16.0621 24.6386 16.5657C25.1824 16.0341 25.7262 15.5024 26.27 14.9707C26.5562 14.6863 26.8567 14.4111 27.1333 14.1173C26.3081 13.3711 25.335 12.7695 24.276 12.3871C22.368 11.6968 20.2215 11.6829 18.2992 12.3311Z" fill="#4C8BF5"/>
<path fill-rule="evenodd" clip-rule="evenodd" d="M37.2665 6.39899C38.4447 6.39899 39.3999 5.44384 39.3999 4.26566C39.3999 3.08747 38.4447 2.13232 37.2665 2.13232C36.0883 2.13232 35.1332 3.08747 35.1332 4.26566C35.1332 5.44384 36.0883 6.39899 37.2665 6.39899ZM4.73319 6.39899C5.91137 6.39899 6.86652 5.44384 6.86652 4.26566C6.86652 3.08747 5.91137 2.13232 4.73319 2.13232C3.555 2.13232 2.59985 3.08747 2.59985 4.26566C2.59985 5.44384 3.555 6.39899 4.73319 6.39899ZM37.2665 38.9323C38.4447 38.9323 39.3999 37.9772 39.3999 36.799C39.3999 35.6208 38.4447 34.6657 37.2665 34.6657C36.0883 34.6657 35.1332 35.6208 35.1332 36.799C35.1332 37.9772 36.0883 38.9323 37.2665 38.9323ZM4.73319 38.9323C5.91137 38.9323 6.86652 37.9772 6.86652 36.799C6.86652 35.6208 5.91137 34.6657 4.73319 34.6657C3.555 34.6657 2.59985 35.6208 2.59985 36.799C2.59985 37.9772 3.555 38.9323 4.73319 38.9323Z" fill="#A4C4FA"/>
</g>
<defs>
<filter id="filter0_ii_855_371" x="0.466553" y="-1.00098" width="41.0667" height="43.0667" filterUnits="userSpaceOnUse" color-interpolation-filters="sRGB">
<feFlood flood-opacity="0" result="BackgroundImageFix"/>
<feBlend mode="normal" in="SourceGraphic" in2="BackgroundImageFix" result="shape"/>
<feColorMatrix in="SourceAlpha" type="matrix" values="0 0 0 0 0 0 0 0 0 0 0 0 0 0 0 0 0 0 127 0" result="hardAlpha"/>
<feOffset dy="1"/>
<feGaussianBlur stdDeviation="2"/>
<feComposite in2="hardAlpha" operator="arithmetic" k2="-1" k3="1"/>
<feColorMatrix type="matrix" values="0 0 0 0 0.639216 0 0 0 0 0.768627 0 0 0 0 0.976471 0 0 0 0.5 0"/>
<feBlend mode="normal" in2="shape" result="effect1_innerShadow_855_371"/>
<feColorMatrix in="SourceAlpha" type="matrix" values="0 0 0 0 0 0 0 0 0 0 0 0 0 0 0 0 0 0 127 0" result="hardAlpha"/>
<feOffset dy="-1"/>
<feGaussianBlur stdDeviation="2"/>
<feComposite in2="hardAlpha" operator="arithmetic" k2="-1" k3="1"/>
<feColorMatrix type="matrix" values="0 0 0 0 0.639216 0 0 0 0 0.768627 0 0 0 0 0.976471 0 0 0 0.5 0"/>
<feBlend mode="normal" in2="effect1_innerShadow_855_371" result="effect2_innerShadow_855_371"/>
</filter>
<filter id="filter1_d_855_371" x="2.73315" y="2.26575" width="40.5334" height="40.5333" filterUnits="userSpaceOnUse" color-interpolation-filters="sRGB">
<feFlood flood-opacity="0" result="BackgroundImageFix"/>
<feColorMatrix in="SourceAlpha" type="matrix" values="0 0 0 0 0 0 0 0 0 0 0 0 0 0 0 0 0 0 127 0" result="hardAlpha"/>
<feOffset dx="2" dy="2"/>
<feGaussianBlur stdDeviation="2"/>
<feColorMatrix type="matrix" values="0 0 0 0 0 0 0 0 0 0 0 0 0 0 0 0 0 0 0.1 0"/>
<feBlend mode="normal" in2="BackgroundImageFix" result="effect1_dropShadow_855_371"/>
<feBlend mode="normal" in="SourceGraphic" in2="effect1_dropShadow_855_371" result="shape"/>
</filter>
<linearGradient id="paint0_linear_855_371" x1="11.3998" y1="33.7965" x2="34.2296" y2="56.9238" gradientUnits="userSpaceOnUse">
<stop stop-color="#3C70C8"/>
<stop offset="1" stop-color="#4889F4" stop-opacity="0.01"/>
</linearGradient>
</defs>
</svg>