<svg width="52" height="25" viewBox="0 0 52 25" fill="none" xmlns="http://www.w3.org/2000/svg">
<path fill-rule="evenodd" clip-rule="evenodd" d="M26 15.5269C26.1893 15.7575 33.2751 24.3328 39.9722 24.3328C46.7606 24.3328 50.6039 17.4976 50.6039 17.4976C53.2492 12.7558 50.9036 8.11309 50.9036 8.11309C50.9036 8.11309 47.5095 0.731812 39.9722 0.731812C32.5423 0.731812 26.1792 9.39299 26 9.63896C25.8208 9.39299 19.4577 0.731812 12.0278 0.731812C4.49075 0.731812 1.0963 8.11309 1.0963 8.11309C1.0963 8.11309 -1.24934 12.7558 1.39593 17.4976C1.39593 17.4976 5.23939 24.3328 12.0278 24.3328C18.7248 24.3328 25.8106 15.7575 26 15.5269ZM12.3127 4.85347C7.67001 4.85347 5.69401 8.6316 5.69401 8.6316C5.69401 8.6316 3.57027 12.0151 5.69401 16.3617C7.81827 20.7084 12.2391 20.3132 12.2391 20.3132C12.2391 20.3132 14.6443 20.6588 18.496 17.3431C19.8308 16.1941 21.3392 14.6054 22.9815 12.4103C22.9815 12.4103 16.9559 4.85347 12.3127 4.85347ZM39.9522 4.85347C44.5949 4.85347 46.5709 8.6316 46.5709 8.6316C46.5709 8.6316 48.6945 12.0151 46.5709 16.3617C44.4467 20.7084 40.0258 20.3132 40.0258 20.3132C40.0258 20.3132 37.6206 20.6588 33.7689 17.3431C32.4342 16.1941 30.9257 14.6054 29.2834 12.4103C29.2834 12.4103 35.309 4.85347 39.9522 4.85347Z" fill="url(#paint0_linear_855_2863)"/>
<defs>
<linearGradient id="paint0_linear_855_2863" x1="23.1372" y1="24.7318" x2="27.1372" y2="0.731811" gradientUnits="userSpaceOnUse">
<stop stop-color="#FB923C"/>
<stop offset="0.496353" stop-color="#EF4444"/>
<stop offset="1" stop-color="#701A75"/>
</linearGradient>
</defs>
</svg>
