<svg width="58" height="43" viewBox="0 0 58 43" fill="none" xmlns="http://www.w3.org/2000/svg">
<path fill-rule="evenodd" clip-rule="evenodd" d="M20.1024 32.7274C20.1024 32.7274 23.2922 29.2053 28.6085 29.2053C33.9248 29.2053 37.52 32.7274 37.52 32.7274L28.8112 42.2522L20.1024 32.7274ZM15.235 28.028C15.235 28.028 20.8462 22.4061 28.811 22.3539C36.7758 22.3011 42.555 28.028 42.555 28.028L47.5987 22.3533C47.5987 22.3533 39.4974 14.8408 28.811 14.8931C18.1246 14.9459 9.98109 22.6691 9.98109 22.6691L15.235 28.028ZM5.67287 17.4677C5.67287 17.4677 16.1177 8.2208 28.811 8.2208C41.5043 8.2208 52.0119 17.4677 52.0119 17.4677L57.0557 11.9509C57.0557 11.9509 44.6041 0.760538 28.7902 0.812805C12.9758 0.865605 0.944336 12.1088 0.944336 12.1088L5.67287 17.4677Z" fill="url(#paint0_linear_855_21261)"/>
<defs>
<linearGradient id="paint0_linear_855_21261" x1="0.944336" y1="0.812645" x2="0.944336" y2="42.2522" gradientUnits="userSpaceOnUse">
<stop stop-color="#19DEFE"/>
<stop offset="1" stop-color="#1E5BEF"/>
</linearGradient>
</defs>
</svg>
