<svg width="21" height="24" viewBox="0 0 21 24" fill="none" xmlns="http://www.w3.org/2000/svg">
<path d="M21.0001 6.03122L18.5001 6.03122C18.3031 6.03122 18.108 6.07003 17.926 6.14541C17.7441 6.22078 17.5787 6.33125 17.4393 6.47052C17.3001 6.6099 17.1896 6.77527 17.1142 6.95718C17.0388 7.13919 17 7.33426 17 7.53124L17 13.0313C16.5 15.0308 16.4065 15.6247 15 17.0313C13.5935 18.4378 12.4892 19.5312 10.5 19.5313C9.51511 19.5313 8.90995 19.4082 8 19.0312C7.09004 18.6543 6.19645 17.7277 5.5 17.0313C4.80356 16.3348 4.87691 16.4412 4.5 15.5312C4.12309 14.6213 4.00003 14.0162 4.00004 13.0312L4.00004 7.53169C4.0001 7.33471 3.96134 7.13953 3.88599 6.95751C3.81063 6.7755 3.70015 6.61002 3.56086 6.47074C3.42155 6.33136 3.25617 6.22089 3.07415 6.14541C2.89214 6.07003 2.69705 6.03122 2.50002 6.03122L-7.43095e-07 6.03122L-4.15255e-07 12.5313C-3.55061e-07 13.9102 0.271592 15.2756 0.799269 16.5495C1.32695 17.8234 2.10038 18.9809 3.07539 19.9559C4.05042 20.9309 5.20793 21.7044 6.48186 22.232C7.75578 22.7597 9.12116 23.0313 10.5 23.0312C13.2848 23.0312 15.9555 21.925 17.9247 19.9559C19.8938 17.9868 21.0001 15.3161 21.0001 12.5313L21.0001 6.03122Z" fill="#EA580C"/>
<circle cx="4.5" cy="5.46875" r="4.5" fill="#0F172A"/>
</svg>
